# xmcd
#
# Track frame offsets:
#	150
#	11505
#	25967
#	41297
#	53852
#	69377
#	76192
#	87570
#	101777
#	109265
#	123682
#	137227
#	152640
#	164017
#	175947
#	191032
#
# Disc length: 2684
#
# Revision: 2
# Processed by: cddbd v1.5.1PL0 Copyright (c) Steve Scherf et al.
# Submitted via: ExactAudioCopy v0.90b4
# Normalized: r1:TRMNUM
#
DISCID=db0a7a10
DTITLE=Léo Ferré - Le Temps des roses rouges
DYEAR=1900
DGENRE=Chanson
TTITLE0=La chanson du scaphandrier
TTITLE1=Monsieur William
TTITLE2=Monsieur Tout-Blanc
TTITLE3=La vie d'artiste
TTITLE4=Le bateau espagnol
TTITLE5=La femme adultère
TTITLE6=A St-Germain-des-Prés
TTITLE7=L'île Saint-Louis
TTITLE8=Le flamenco de Paris
TTITLE9=L'inconnue de Londres
TTITLE10=Les forains
TTITLE11=Barbarie
TTITLE12=L'esprit de famille
TTITLE13=Le temps des roses rouges
TTITLE14=Lîîle Saintt-Louis (version alternative)
TTITLE15=Le flamenco de Paris (verson alternative)
EXTD=
EXTT0=
EXTT1=
EXTT2=
EXTT3=
EXTT4=
EXTT5=
EXTT6=
EXTT7=
EXTT8=
EXTT9=
EXTT10=
EXTT11=
EXTT12=
EXTT13=
EXTT14=
EXTT15=
PLAYORDER=
